<svg width="128" height="128" viewBox="0 0 128 128" fill="none" xmlns="http://www.w3.org/2000/svg">
<g opacity="0.3">
<path opacity="0.3" d="M126.19 49.69C125.298 43.6186 122.566 37.9667 118.363 33.4963C114.159 29.026 108.685 25.9524 102.68 24.69C98.4112 23.7785 94.5664 21.4744 91.7498 18.14C87.3125 12.8894 81.5002 8.9789 74.9647 6.84696C68.4292 4.71501 61.429 4.44595 54.7491 6.06997C48.0692 7.69399 41.9739 11.1468 37.1467 16.0413C32.3195 20.9358 28.9512 27.0783 27.4198 33.78C26.7679 36.6091 25.4946 39.2577 23.6924 41.5339C21.8901 43.8101 19.604 45.6567 16.9998 46.94C13.02 48.9265 9.57077 51.8326 6.93773 55.4176C4.30469 59.0026 2.56362 63.1633 1.85872 67.5551C1.15382 71.9469 1.50537 76.4435 2.88426 80.6724C4.26314 84.9013 6.62969 88.7408 9.78789 91.873C12.9461 95.0052 16.8051 97.34 21.0452 98.6838C25.2854 100.028 29.7847 100.342 34.1705 99.6009C38.5564 98.8597 42.7025 97.0844 46.2656 94.4218C49.8287 91.7592 52.7062 88.2861 54.6598 84.29C55.4359 82.6962 56.6465 81.354 58.1521 80.4181C59.6577 79.4822 61.397 78.9906 63.1698 79H63.9998C66.8077 79.0234 69.5244 80 71.7046 81.7696C73.8848 83.5392 75.3993 85.9969 75.9998 88.74C76.6604 91.4539 77.8821 93.9993 79.5862 96.2123C81.2903 98.4254 83.4391 100.257 85.8941 101.589C88.3492 102.921 91.056 103.724 93.8402 103.946C96.6245 104.169 99.4245 103.806 102.06 102.88C105.821 101.573 109.106 99.1733 111.495 95.988C113.884 92.8026 115.268 88.9766 115.47 85C115.644 80.5096 117.229 76.1883 120 72.65C122.547 69.4495 124.41 65.7607 125.475 61.8116C126.539 57.8625 126.783 53.7369 126.19 49.69Z" fill="#97C1FF"/>
<path opacity="0.3" d="M44.7398 25.49C44.9887 22.7851 44.2541 20.081 42.6706 17.8739C41.0871 15.6668 38.761 14.1046 36.1189 13.4739C33.4767 12.8431 30.6958 13.1861 28.2861 14.4399C25.8764 15.6937 23.9995 17.7743 22.9998 20.3C22.1172 19.5744 21.0458 19.1159 19.9115 18.9784C18.7773 18.8409 17.6274 19.0301 16.597 19.5238C15.5666 20.0174 14.6985 20.795 14.095 21.7651C13.4914 22.7352 13.1773 23.8575 13.1898 25C13.1898 25.17 13.1898 25.34 13.1898 25.51C11.1839 26.2156 9.49271 27.6086 8.41585 29.442C7.33899 31.2755 6.94605 33.431 7.30668 35.5265C7.66731 37.622 8.75822 39.5221 10.386 40.8901C12.0139 42.2581 14.0735 43.0055 16.1998 43H41.7998C43.9251 42.9958 45.9804 42.2395 47.6016 40.8652C49.2227 39.4908 50.3053 37.5871 50.6574 35.4911C51.0095 33.3952 50.6085 31.2422 49.5254 29.4135C48.4423 27.5849 46.747 26.1985 44.7398 25.5V25.49Z" fill="#EEF6FF"/>
<g opacity="0.3">
<path opacity="0.3" d="M41.7999 40H16.1999C14.064 40.0077 11.9949 39.2555 10.3626 37.8778C8.7303 36.5002 7.64118 34.5869 7.28994 32.48C7.06803 33.775 7.13235 35.1028 7.47837 36.3703C7.8244 37.6378 8.44374 38.8142 9.29289 39.8168C10.142 40.8194 11.2004 41.6239 12.3937 42.1738C13.5869 42.7237 14.8861 43.0057 16.1999 43H41.7999C43.1138 43.0057 44.413 42.7237 45.6062 42.1738C46.7995 41.6239 47.8578 40.8194 48.707 39.8168C49.5561 38.8142 50.1755 37.6378 50.5215 36.3703C50.8675 35.1028 50.9319 33.775 50.7099 32.48C50.3587 34.5869 49.2696 36.5002 47.6373 37.8778C46.005 39.2555 43.9359 40.0077 41.7999 40Z" fill="#5CBEFF"/>
</g>
<path opacity="0.3" d="M13.2097 28.51C13.2097 28.34 13.2097 28.17 13.2097 28C13.2004 26.8611 13.5155 25.7431 14.1181 24.7766C14.7208 23.8102 15.586 23.0352 16.6127 22.5423C17.6395 22.0494 18.7853 21.8589 19.9163 21.9931C21.0473 22.1272 22.1168 22.5805 22.9997 23.3C23.9539 20.7112 25.824 18.5619 28.2559 17.2588C30.6879 15.9556 33.5131 15.589 36.1971 16.2283C38.8811 16.8676 41.2378 18.4684 42.8211 20.7279C44.4045 22.9875 45.1049 25.749 44.7897 28.49C46.328 29.0074 47.6978 29.9311 48.7541 31.1634C49.8103 32.3957 50.5137 33.8906 50.7897 35.49C51.1584 33.3803 50.7548 31.2085 49.653 29.372C48.5511 27.5356 46.8246 26.1575 44.7897 25.49C45.084 22.7582 44.372 20.0129 42.7871 17.7684C41.2023 15.524 38.8534 13.9345 36.1805 13.2979C33.5077 12.6613 30.6945 13.0212 28.268 14.3102C25.8416 15.5992 23.9684 17.7289 22.9997 20.3C22.1171 19.5744 21.0457 19.1159 19.9115 18.9784C18.7772 18.8409 17.6273 19.0301 16.5969 19.5237C15.5665 20.0174 14.6985 20.795 14.0949 21.7651C13.4913 22.7352 13.1773 23.8575 13.1897 25C13.1897 25.17 13.1897 25.34 13.1897 25.51C11.1684 26.1909 9.45884 27.575 8.37229 29.4104C7.28575 31.2458 6.89446 33.4104 7.26968 35.51C7.54048 33.9175 8.23488 32.4273 9.28002 31.1957C10.3252 29.964 11.6825 29.0363 13.2097 28.51Z" fill="white"/>
<path opacity="0.3" d="M41.7997 44H16.1997C13.9044 43.9973 11.6799 43.2051 9.89959 41.7563C8.11929 40.3076 6.89156 38.2905 6.42249 36.0436C5.95342 33.7968 6.27156 31.4569 7.32351 29.4169C8.37546 27.3769 10.0972 25.7608 12.1997 24.84C12.2273 23.6425 12.5618 22.4722 13.171 21.441C13.7803 20.4097 14.644 19.5521 15.6795 18.95C16.7149 18.348 17.8876 18.0217 19.0852 18.0025C20.2828 17.9832 21.4654 18.2716 22.5197 18.84C23.7536 16.3623 25.7872 14.3733 28.2915 13.1945C30.7959 12.0158 33.6246 11.7161 36.3203 12.3441C39.0161 12.972 41.4212 14.4909 43.1468 16.655C44.8724 18.8192 45.8177 21.5021 45.8297 24.27C45.8297 24.46 45.8297 24.66 45.8297 24.85C47.9285 25.7754 49.6453 27.3943 50.6924 29.4351C51.7395 31.4759 52.0532 33.8147 51.5808 36.0593C51.1084 38.3039 49.8788 40.3179 48.098 41.7637C46.3171 43.2094 44.0934 43.9989 41.7997 44ZM19.2097 20C17.8836 20 16.6118 20.5268 15.6741 21.4645C14.7365 22.4021 14.2097 23.6739 14.2097 25C14.2097 25.14 14.2097 25.29 14.2097 25.43C14.2217 25.6468 14.1629 25.8617 14.042 26.0421C13.9211 26.2225 13.7448 26.3587 13.5397 26.43C11.741 27.0445 10.2199 28.2794 9.24884 29.9135C8.27782 31.5475 7.92033 33.4739 8.24043 35.3475C8.56052 37.2212 9.53728 38.9196 10.9957 40.1386C12.4542 41.3576 14.299 42.0175 16.1997 42H41.7997C43.6917 42.0008 45.5228 41.331 46.9677 40.1096C48.4126 38.8881 49.3779 37.1941 49.6921 35.3283C50.0062 33.4626 49.6489 31.5459 48.6837 29.9186C47.7184 28.2913 46.2076 27.0588 44.4197 26.44C44.2038 26.3662 44.0197 26.2209 43.8979 26.0281C43.776 25.8353 43.7237 25.6066 43.7497 25.38C43.7948 25.0016 43.8182 24.621 43.8197 24.24C43.8048 21.8359 42.9495 19.5128 41.4019 17.6731C39.8542 15.8334 37.7118 14.593 35.3458 14.1668C32.9798 13.7406 30.5392 14.1555 28.447 15.3395C26.3547 16.5236 24.7425 18.4022 23.8897 20.65C23.8342 20.7977 23.7445 20.9303 23.628 21.0367C23.5115 21.1432 23.3714 21.2205 23.2192 21.2625C23.0671 21.3044 22.9072 21.3097 22.7525 21.278C22.5979 21.2463 22.453 21.1784 22.3297 21.08C21.442 20.3771 20.342 19.9963 19.2097 20Z" fill="#030958"/>
<path opacity="0.3" d="M41.7998 25C42.8208 24.9964 43.8351 25.1655 44.7998 25.5L41.7998 25Z" fill="#EEF6FF"/>
<path opacity="0.3" d="M44.7698 26.49C44.6572 26.4887 44.5456 26.4684 44.4398 26.43C43.5899 26.1405 42.6976 25.9951 41.7998 26C41.5346 26 41.2802 25.8946 41.0927 25.7071C40.9052 25.5196 40.7998 25.2652 40.7998 25C40.7998 24.7348 40.9052 24.4804 41.0927 24.2929C41.2802 24.1054 41.5346 24 41.7998 24C42.9195 23.9988 44.0314 24.1847 45.0898 24.55C45.3173 24.6246 45.5105 24.7784 45.6342 24.9834C45.7579 25.1884 45.804 25.431 45.764 25.667C45.7241 25.9031 45.6008 26.117 45.4165 26.2699C45.2322 26.4227 44.9992 26.5044 44.7598 26.5L44.7698 26.49Z" fill="#030958"/>
<path opacity="0.3" d="M13.21 25.5C14.1746 25.1655 15.1889 24.9964 16.21 25L13.21 25.5Z" fill="#EEF6FF"/>
<path opacity="0.3" d="M13.2097 26.5C12.9755 26.4974 12.7496 26.4127 12.5714 26.2606C12.3933 26.1085 12.2741 25.8987 12.2349 25.6677C12.1956 25.4368 12.2386 25.1994 12.3565 24.997C12.4743 24.7945 12.6595 24.6399 12.8797 24.56C13.9468 24.187 15.0693 23.9977 16.1997 24C16.4649 24 16.7193 24.1053 16.9068 24.2929C17.0943 24.4804 17.1997 24.7348 17.1997 25C17.1997 25.2652 17.0943 25.5196 16.9068 25.7071C16.7193 25.8946 16.4649 26 16.1997 26C15.294 25.9983 14.3945 26.1505 13.5397 26.45C13.4333 26.485 13.3217 26.5019 13.2097 26.5Z" fill="#030958"/>
<path opacity="0.3" d="M22.9097 20.26C23.5952 20.7995 24.1549 21.482 24.5497 22.26L22.9097 20.26Z" fill="#EEF6FF"/>
<path opacity="0.3" d="M24.55 23.22C24.3674 23.2213 24.1879 23.1726 24.031 23.0792C23.8741 22.9858 23.7458 22.8512 23.66 22.69C23.3241 22.0556 22.8571 21.5 22.29 21.06C22.0805 20.8969 21.9443 20.6572 21.9115 20.3937C21.8787 20.1303 21.9519 19.8645 22.115 19.655C22.2781 19.4455 22.5177 19.3093 22.7812 19.2765C23.0447 19.2437 23.3105 19.3169 23.52 19.48C24.3109 20.0962 24.9619 20.8733 25.43 21.76C25.511 21.9122 25.5513 22.0827 25.547 22.2551C25.5427 22.4274 25.4939 22.5957 25.4053 22.7436C25.3168 22.8916 25.1915 23.0141 25.0416 23.0993C24.8917 23.1845 24.7224 23.2295 24.55 23.23V23.22Z" fill="#030958"/>
<path opacity="0.3" d="M94.6099 21.66C94.4035 20.1818 94.7553 18.6798 95.5969 17.4472C96.4384 16.2145 97.7091 15.3397 99.1609 14.9937C100.613 14.6476 102.141 14.855 103.449 15.5755C104.756 16.2959 105.747 17.4777 106.23 18.89C106.702 18.5137 107.271 18.2783 107.872 18.2108C108.472 18.1434 109.079 18.2467 109.623 18.5089C110.167 18.7711 110.626 19.1814 110.948 19.6928C111.269 20.2043 111.44 20.796 111.44 21.4C111.44 21.49 111.44 21.58 111.44 21.67C112.523 22.034 113.441 22.7732 114.027 23.7544C114.613 24.7355 114.829 25.8938 114.635 27.0202C114.442 28.1466 113.853 29.1668 112.973 29.8966C112.094 30.6264 110.983 31.0178 109.84 31H96.1799C95.0428 31.0028 93.9416 30.6018 93.0726 29.8684C92.2036 29.1351 91.6231 28.1171 91.4346 26.9957C91.2461 25.8743 91.4618 24.7225 92.0433 23.7453C92.6248 22.7681 93.5344 22.0291 94.6099 21.66Z" fill="#EEF6FF"/>
<path opacity="0.3" d="M94.6098 23.66C94.4033 22.1818 94.7552 20.6798 95.5967 19.4472C96.4383 18.2145 97.709 17.3398 99.1608 16.9937C100.613 16.6476 102.141 16.855 103.448 17.5755C104.755 18.2959 105.747 19.4777 106.23 20.89C106.702 20.5137 107.271 20.2783 107.871 20.2108C108.472 20.1434 109.079 20.2467 109.623 20.5089C110.167 20.7711 110.626 21.1814 110.948 21.6928C111.269 22.2043 111.44 22.796 111.44 23.4C111.44 23.49 111.44 23.58 111.44 23.67C112.218 23.9437 112.913 24.4131 113.458 25.0331C114.003 25.653 114.379 26.4027 114.55 27.21C114.805 26.0657 114.628 24.8675 114.054 23.8452C113.48 22.8229 112.549 22.0484 111.44 21.67C111.44 21.58 111.44 21.49 111.44 21.4C111.44 20.796 111.269 20.2043 110.948 19.6928C110.626 19.1814 110.167 18.7711 109.623 18.5089C109.079 18.2467 108.472 18.1434 107.871 18.2108C107.271 18.2783 106.702 18.5137 106.23 18.89C105.747 17.4777 104.755 16.2959 103.448 15.5755C102.141 14.855 100.613 14.6476 99.1608 14.9937C97.709 15.3397 96.4383 16.2145 95.5967 17.4472C94.7552 18.6798 94.4033 20.1818 94.6098 21.66C93.4925 22.0327 92.553 22.8064 91.9731 23.8315C91.3931 24.8566 91.2138 26.0603 91.4698 27.21C91.6421 26.3975 92.0219 25.6435 92.5722 25.0214C93.1224 24.3993 93.8244 23.9303 94.6098 23.66Z" fill="white"/>
<g opacity="0.3">
<path opacity="0.3" d="M109.84 29H96.1799C95.0811 29.0026 94.0146 28.629 93.1577 27.9413C92.3008 27.2536 91.7051 26.2932 91.4699 25.22C91.3979 25.5485 91.361 25.8837 91.3599 26.22C91.3678 27.4922 91.8794 28.7095 92.7828 29.6053C93.6861 30.5012 94.9076 31.0027 96.1799 31H109.84C110.472 31.0013 111.097 30.8782 111.681 30.6377C112.265 30.3972 112.796 30.044 113.244 29.5982C113.692 29.1525 114.047 28.623 114.29 28.0399C114.533 27.4569 114.659 26.8316 114.66 26.2C114.659 25.8637 114.622 25.5285 114.55 25.2C114.319 26.2769 113.725 27.2419 112.867 27.9335C112.01 28.6252 110.941 29.0016 109.84 29Z" fill="#5CBEFF"/>
</g>
<path opacity="0.3" d="M109.84 32H96.1796C94.862 32.0194 93.5771 31.5888 92.5372 30.7792C91.4974 29.9696 90.7649 28.8295 90.4606 27.5473C90.1564 26.2651 90.2987 24.9174 90.8639 23.727C91.4292 22.5366 92.3837 21.5746 93.5696 21C93.5548 19.4468 94.057 17.9328 94.9971 16.6963C95.9372 15.4599 97.2618 14.5712 98.7625 14.1703C100.263 13.7694 101.854 13.8789 103.286 14.4817C104.717 15.0845 105.908 16.1464 106.67 17.5C107.277 17.2583 107.932 17.1608 108.583 17.2154C109.234 17.2699 109.864 17.4749 110.422 17.8142C110.98 18.1536 111.452 18.6179 111.801 19.1708C112.149 19.7236 112.365 20.3498 112.43 21C113.614 21.5739 114.567 22.5342 115.133 23.7225C115.698 24.9108 115.842 26.2564 115.54 27.5373C115.239 28.8183 114.51 29.9583 113.474 30.7696C112.437 31.5808 111.156 32.0147 109.84 32ZM100.6 16C99.2736 16 98.0018 16.5268 97.0641 17.4645C96.1264 18.4021 95.5996 19.6739 95.5996 21C95.5895 21.1832 95.5895 21.3668 95.5996 21.55C95.6256 21.7766 95.5733 22.0053 95.4514 22.1981C95.3296 22.3909 95.1455 22.5362 94.9296 22.61C94.0679 22.8932 93.3363 23.476 92.8677 24.2527C92.3991 25.0293 92.2246 25.9483 92.3759 26.8427C92.5272 27.737 92.9942 28.5475 93.6921 29.1268C94.3901 29.7062 95.2727 30.016 96.1796 30H109.84C110.742 30.0109 111.619 29.6995 112.312 29.1217C113.005 28.5439 113.47 27.7377 113.621 26.8481C113.773 25.9585 113.603 25.0439 113.141 24.2688C112.678 23.4938 111.955 22.9091 111.1 22.62C110.895 22.5487 110.718 22.4125 110.597 22.2321C110.476 22.0517 110.418 21.8368 110.43 21.62C110.43 21.56 110.43 21.5 110.43 21.43C110.428 21.0143 110.31 20.6073 110.088 20.2559C109.866 19.9044 109.549 19.6227 109.175 19.4431C108.8 19.2635 108.382 19.1933 107.969 19.2405C107.556 19.2877 107.164 19.4504 106.84 19.71C106.716 19.8084 106.571 19.8763 106.417 19.908C106.262 19.9398 106.102 19.9344 105.95 19.8925C105.798 19.8505 105.658 19.7732 105.541 19.6667C105.425 19.5603 105.335 19.4277 105.28 19.28C104.928 18.3206 104.291 17.4919 103.454 16.9055C102.618 16.319 101.621 16.003 100.6 16Z" fill="#030958"/>
<path opacity="0.3" d="M96.1796 21.4C95.6421 21.3981 95.1081 21.486 94.5996 21.66L96.1796 21.4Z" fill="#EEF6FF"/>
<path opacity="0.3" d="M94.5998 22.66C94.3604 22.6644 94.1274 22.5827 93.9431 22.4298C93.7588 22.277 93.6355 22.0631 93.5956 21.827C93.5556 21.5909 93.6017 21.3484 93.7254 21.1434C93.8491 20.9384 94.0423 20.7846 94.2698 20.71C94.8842 20.4978 95.5298 20.3896 96.1798 20.39C96.445 20.39 96.6994 20.4953 96.8869 20.6829C97.0744 20.8704 97.1798 21.1248 97.1798 21.39C97.1798 21.6552 97.0744 21.9096 96.8869 22.0971C96.6994 22.2846 96.445 22.39 96.1798 22.39C95.7544 22.3901 95.3319 22.461 94.9298 22.6C94.824 22.6384 94.7124 22.6587 94.5998 22.66Z" fill="#030958"/>
<path opacity="0.3" d="M111.43 21.67C110.919 21.4915 110.381 21.4002 109.84 21.4L111.43 21.67Z" fill="#EEF6FF"/>
<path opacity="0.3" d="M111.43 22.67C111.317 22.6687 111.206 22.6484 111.1 22.61C110.695 22.4701 110.269 22.3991 109.84 22.4C109.575 22.4 109.32 22.2946 109.133 22.1071C108.945 21.9196 108.84 21.6652 108.84 21.4C108.84 21.1348 108.945 20.8804 109.133 20.6929C109.32 20.5053 109.575 20.4 109.84 20.4C110.493 20.3983 111.142 20.5065 111.76 20.72C111.98 20.7999 112.165 20.9545 112.283 21.157C112.401 21.3594 112.444 21.5968 112.405 21.8277C112.365 22.0587 112.246 22.2685 112.068 22.4206C111.89 22.5727 111.664 22.6574 111.43 22.66V22.67Z" fill="#030958"/>
<path opacity="0.3" d="M106.26 18.87C105.903 19.1394 105.607 19.4799 105.39 19.87L106.26 18.87Z" fill="#EEF6FF"/>
<path opacity="0.3" d="M105.38 20.91C105.207 20.9095 105.038 20.8645 104.888 20.7793C104.738 20.6941 104.613 20.5716 104.524 20.4236C104.436 20.2757 104.387 20.1074 104.383 19.9351C104.378 19.7627 104.419 19.5922 104.5 19.44C104.779 18.9079 105.167 18.441 105.64 18.07C105.849 17.9069 106.115 17.8337 106.378 17.8665C106.642 17.8993 106.882 18.0355 107.045 18.245C107.208 18.4545 107.281 18.7202 107.248 18.9837C107.215 19.2472 107.079 19.4869 106.87 19.65C106.621 19.8448 106.416 20.0902 106.27 20.37C106.185 20.533 106.057 20.6697 105.9 20.7649C105.743 20.8602 105.563 20.9104 105.38 20.91Z" fill="#030958"/>
<path opacity="0.3" d="M90.77 58C90.3724 56.4611 90.4422 54.8387 90.9706 53.3396C91.4989 51.8406 92.4618 50.5329 93.7364 49.5834C95.0111 48.6338 96.5396 48.0855 98.1272 48.0083C99.7147 47.9311 101.289 48.3286 102.65 49.15C103.92 47.4707 105.667 46.2126 107.662 45.5395C109.657 44.8663 111.809 44.8092 113.837 45.3755C115.865 45.9419 117.676 47.1055 119.034 48.715C120.391 50.3246 121.233 52.3054 121.45 54.4C123.135 54.9734 124.561 56.1272 125.473 57.6553C126.386 59.1834 126.725 60.9861 126.43 62.7413C126.136 64.4964 125.227 66.0897 123.865 67.2362C122.504 68.3828 120.78 69.008 119 69H91C90.2777 69.0151 89.5596 68.8878 88.8865 68.6253C88.2134 68.3629 87.5986 67.9704 87.0772 67.4704C86.0242 66.4605 85.4155 65.0737 85.385 63.615C85.3545 62.1563 85.9047 60.7452 86.9146 59.6922C87.9245 58.6392 89.3113 58.0305 90.77 58Z" fill="#EEF6FF"/>
<path opacity="0.3" d="M90.7696 61C90.5044 60.0232 90.4364 59.0034 90.5696 58C89.7559 58.0607 88.9661 58.3028 88.258 58.7083C87.55 59.1139 86.9417 59.6728 86.4776 60.3439C86.0135 61.0151 85.7055 61.7816 85.5761 62.5872C85.4467 63.3929 85.4991 64.2173 85.7296 65C86.0406 63.887 86.6955 62.9008 87.6007 62.1824C88.5059 61.464 89.6151 61.0501 90.7696 61Z" fill="white"/>
<path opacity="0.3" d="M98.5098 51C99.9698 51.0016 101.401 51.4028 102.65 52.16C103.92 50.4807 105.667 49.2227 107.662 48.5495C109.657 47.8763 111.809 47.8192 113.837 48.3855C115.865 48.9519 117.676 50.1155 119.033 51.7251C120.391 53.3346 121.233 55.3154 121.45 57.41C122.686 57.8382 123.788 58.5821 124.648 59.5679C125.507 60.5538 126.094 61.7473 126.35 63.03C126.724 61.2428 126.433 59.3805 125.53 57.7931C124.628 56.2057 123.177 55.0026 121.45 54.41C121.233 52.3154 120.391 50.3346 119.033 48.7251C117.676 47.1155 115.865 45.9519 113.837 45.3855C111.809 44.8192 109.657 44.8763 107.662 45.5495C105.667 46.2227 103.92 47.4807 102.65 49.16C101.437 48.4264 100.051 48.0283 98.6331 48.0064C97.2156 47.9846 95.8178 48.3397 94.5828 49.0356C93.3477 49.7315 92.3197 50.7431 91.604 51.9668C90.8884 53.1905 90.5107 54.5824 90.5098 56C90.5139 56.487 90.5641 56.9725 90.6598 57.45C91.0188 55.6321 91.9977 53.9952 93.4294 52.8189C94.8611 51.6425 96.6568 50.9996 98.5098 51Z" fill="white"/>
<path opacity="0.3" d="M90.7698 55C90.7698 54.82 90.6898 54.62 90.6598 54.43C90.6598 54.63 90.5898 54.82 90.5698 55.02L90.7698 55Z" fill="#5CBEFF"/>
<g opacity="0.3">
<path opacity="0.3" d="M119 66H90.9997C89.8045 65.9975 88.6426 65.6057 87.6899 64.884C86.7373 64.1623 86.0456 63.1499 85.7197 62C85.5803 62.4744 85.5063 62.9656 85.4997 63.46C85.4944 64.1856 85.6327 64.9051 85.9068 65.577C86.1808 66.249 86.5851 66.86 87.0964 67.375C87.6076 67.8899 88.2157 68.2986 88.8856 68.5775C89.5555 68.8564 90.274 69 90.9997 69H119C120.115 69.0117 121.219 68.772 122.229 68.2988C123.24 67.8255 124.13 67.1309 124.835 66.2663C125.541 65.4018 126.042 64.3895 126.302 63.3047C126.563 62.2199 126.575 61.0904 126.34 60C125.994 61.6924 125.075 63.2136 123.738 64.3068C122.401 65.4 120.727 65.998 119 66Z" fill="#5CBEFF"/>
</g>
<path opacity="0.3" d="M90.9999 70C89.402 69.9967 87.8613 69.405 86.672 68.3378C85.4827 67.2706 84.7282 65.8027 84.5526 64.2145C84.3769 62.6263 84.7925 61.029 85.7198 59.7277C86.6472 58.4264 88.0214 57.5123 89.5799 57.16C89.5303 56.7754 89.5069 56.3878 89.5099 56C89.5126 54.4799 89.9003 52.9853 90.6367 51.6556C91.3731 50.3259 92.4343 49.2043 93.7214 48.3955C95.0084 47.5868 96.4793 47.1172 97.9969 47.0305C99.5144 46.9439 101.029 47.243 102.4 47.9C103.841 46.2543 105.721 45.054 107.82 44.4401C109.919 43.8262 112.15 43.8242 114.251 44.4344C116.351 45.0445 118.233 46.2415 119.677 47.8845C121.121 49.5276 122.065 51.5486 122.4 53.71C124.189 54.4912 125.655 55.8648 126.551 57.5997C127.447 59.3347 127.719 61.3252 127.32 63.2367C126.921 65.1481 125.876 66.8639 124.361 68.0956C122.846 69.3273 120.953 69.9998 119 70H90.9999ZM98.4999 49C97.4312 49.0008 96.3768 49.2463 95.4176 49.7177C94.4584 50.1891 93.6199 50.8738 92.9664 51.7195C92.3128 52.5651 91.8616 53.5492 91.6473 54.5963C91.4329 55.6433 91.4612 56.7256 91.7299 57.76C91.7656 57.9032 91.769 58.0526 91.7401 58.1973C91.7111 58.342 91.6505 58.4786 91.5626 58.5971C91.4746 58.7156 91.3615 58.8132 91.2314 58.8829C91.1013 58.9526 90.9574 58.9925 90.8099 59C89.6165 59.0252 88.4819 59.5235 87.6558 60.3852C86.8297 61.2469 86.3797 62.4015 86.4049 63.595C86.4301 64.7885 86.9284 65.923 87.7901 66.7491C88.6519 67.5752 89.8065 68.0252 90.9999 68H119C120.535 67.9969 122.02 67.4505 123.191 66.4575C124.362 65.4646 125.143 64.0893 125.397 62.5752C125.651 61.0611 125.361 59.506 124.578 58.1853C123.795 56.8647 122.57 55.8638 121.12 55.36C120.94 55.2983 120.781 55.1864 120.663 55.0376C120.544 54.8888 120.47 54.7092 120.45 54.52C120.252 52.627 119.49 50.8371 118.263 49.3828C117.035 47.9285 115.398 46.877 113.565 46.3649C111.732 45.8527 109.787 45.9035 107.983 46.5107C106.18 47.118 104.6 48.2535 103.45 49.77C103.3 49.9681 103.082 50.1035 102.838 50.1497C102.594 50.1959 102.342 50.1497 102.13 50.02C101.039 49.3561 99.7871 49.0034 98.5099 49H98.4999Z" fill="#030958"/>
<path opacity="0.3" d="M121 59.75C120.838 59.7581 120.676 59.7266 120.529 59.6583C120.382 59.59 120.254 59.4869 120.155 59.358C120.057 59.2291 119.991 59.0781 119.964 58.9182C119.937 58.7583 119.95 58.5942 120 58.44C120.461 57.0168 120.58 55.5049 120.346 54.0272C120.113 52.5494 119.535 51.1476 118.658 49.9355C117.781 48.7235 116.63 47.7354 115.3 47.0516C113.969 46.3677 112.496 46.0074 111 46C110.735 46 110.48 45.8946 110.293 45.7071C110.105 45.5196 110 45.2652 110 45C110 44.7348 110.105 44.4804 110.293 44.2929C110.48 44.1054 110.735 44 111 44C112.815 44.0014 114.604 44.432 116.221 45.2567C117.838 46.0814 119.237 47.2768 120.303 48.7453C121.37 50.2138 122.075 51.9137 122.359 53.7063C122.643 55.499 122.5 57.3334 121.94 59.06C121.875 59.2589 121.75 59.4324 121.581 59.5562C121.412 59.68 121.209 59.7478 121 59.75Z" fill="#030958"/>
<path opacity="0.3" d="M94.63 60.36C94.3869 60.3597 94.1523 60.2708 93.97 60.11C93.1475 59.3919 92.0919 58.9974 91 59C90.7348 59 90.4804 58.8946 90.2929 58.7071C90.1054 58.5196 90 58.2652 90 58C90 57.7348 90.1054 57.4804 90.2929 57.2929C90.4804 57.1054 90.7348 57 91 57C92.5746 57.0006 94.0954 57.5726 95.28 58.61C95.4322 58.7443 95.54 58.9217 95.589 59.1187C95.638 59.3157 95.6259 59.5229 95.5542 59.7129C95.4826 59.9028 95.3549 60.0665 95.188 60.1821C95.0211 60.2976 94.823 60.3597 94.62 60.36H94.63Z" fill="#030958"/>
<path opacity="0.3" d="M105 52.34C104.841 52.3393 104.685 52.3008 104.544 52.2278C104.403 52.1547 104.282 52.0492 104.19 51.92C103.542 51.0176 102.69 50.2822 101.702 49.7745C100.715 49.2667 99.6203 49.0013 98.5098 49C98.2445 49 97.9902 48.8946 97.8027 48.7071C97.6151 48.5196 97.5098 48.2652 97.5098 48C97.5098 47.7348 97.6151 47.4804 97.8027 47.2929C97.9902 47.1054 98.2445 47 98.5098 47C99.941 46.9996 101.352 47.3405 102.625 47.9944C103.898 48.6483 104.996 49.5964 105.83 50.76C105.936 50.9092 105.999 51.0848 106.013 51.2676C106.026 51.4503 105.989 51.6332 105.905 51.7962C105.821 51.9593 105.695 52.0962 105.539 52.1921C105.382 52.288 105.203 52.3392 105.02 52.34H105Z" fill="#030958"/>
<path opacity="0.3" d="M122 86C121.868 85.9994 121.737 85.9726 121.615 85.9211C121.493 85.8696 121.383 85.7945 121.29 85.7C121.105 85.5137 121.001 85.2623 121 85C120.999 84.8668 121.023 84.7346 121.07 84.61C121.122 84.49 121.196 84.3813 121.29 84.29C121.406 84.1747 121.549 84.0898 121.706 84.0427C121.863 83.9956 122.029 83.9878 122.19 84.02H122.38L122.55 84.11C122.606 84.1453 122.657 84.1891 122.7 84.24C122.796 84.3289 122.871 84.4383 122.92 84.56C122.977 84.6995 123.004 84.8494 123 85C122.996 85.2638 122.888 85.5154 122.7 85.7C122.657 85.7509 122.606 85.7947 122.55 85.83L122.38 85.92L122.19 85.98L122 86Z" fill="white"/>
<path opacity="0.3" d="M120 90H114C113.735 90 113.48 89.8946 113.293 89.7071C113.105 89.5196 113 89.2652 113 89C113 88.7348 113.105 88.4804 113.293 88.2929C113.48 88.1054 113.735 88 114 88H120C120.265 88 120.52 88.1054 120.707 88.2929C120.895 88.4804 121 88.7348 121 89C121 89.2652 120.895 89.5196 120.707 89.7071C120.52 89.8946 120.265 90 120 90Z" fill="white"/>
<path opacity="0.3" d="M118 86H111C110.735 86 110.48 85.8946 110.293 85.7071C110.105 85.5196 110 85.2652 110 85C110 84.7348 110.105 84.4804 110.293 84.2929C110.48 84.1054 110.735 84 111 84H118C118.265 84 118.52 84.1054 118.707 84.2929C118.895 84.4804 119 84.7348 119 85C119 85.2652 118.895 85.5196 118.707 85.7071C118.52 85.8946 118.265 86 118 86Z" fill="white"/>
<path opacity="0.3" d="M110 90H108C107.735 90 107.48 89.8946 107.293 89.7071C107.105 89.5196 107 89.2652 107 89C107 88.7348 107.105 88.4804 107.293 88.2929C107.48 88.1054 107.735 88 108 88H110C110.265 88 110.52 88.1054 110.707 88.2929C110.895 88.4804 111 88.7348 111 89C111 89.2652 110.895 89.5196 110.707 89.7071C110.52 89.8946 110.265 90 110 90Z" fill="white"/>
<path opacity="0.3" d="M118 94H110C109.735 94 109.48 93.8946 109.293 93.7071C109.105 93.5196 109 93.2652 109 93C109 92.7348 109.105 92.4804 109.293 92.2929C109.48 92.1054 109.735 92 110 92H118C118.265 92 118.52 92.1054 118.707 92.2929C118.895 92.4804 119 92.7348 119 93C119 93.2652 118.895 93.5196 118.707 93.7071C118.52 93.8946 118.265 94 118 94Z" fill="white"/>
<path opacity="0.3" d="M16 78C15.7348 78 15.4804 77.8946 15.2929 77.7071C15.1054 77.5196 15 77.2652 15 77C15.0016 76.8661 15.0287 76.7337 15.08 76.61C15.1435 76.4586 15.2432 76.3251 15.3705 76.2214C15.4977 76.1176 15.6485 76.0469 15.8096 76.0152C15.9707 75.9836 16.1372 75.9921 16.2942 76.04C16.4512 76.088 16.594 76.1738 16.71 76.29C16.8062 76.3789 16.8814 76.4883 16.93 76.61C16.9779 76.7344 17.0016 76.8667 17 77C17 77.2652 16.8946 77.5196 16.7071 77.7071C16.5196 77.8946 16.2652 78 16 78Z" fill="white"/>
<path opacity="0.3" d="M17 74H15C14.7348 74 14.4804 73.8946 14.2929 73.7071C14.1054 73.5196 14 73.2652 14 73C14 72.7348 14.1054 72.4804 14.2929 72.2929C14.4804 72.1054 14.7348 72 15 72H17C17.2652 72 17.5196 72.1054 17.7071 72.2929C17.8946 72.4804 18 72.7348 18 73C18 73.2652 17.8946 73.5196 17.7071 73.7071C17.5196 73.8946 17.2652 74 17 74Z" fill="white"/>
<path opacity="0.3" d="M20 70H10C9.73478 70 9.48043 69.8946 9.29289 69.7071C9.10536 69.5196 9 69.2652 9 69C9 68.7348 9.10536 68.4804 9.29289 68.2929C9.48043 68.1054 9.73478 68 10 68H20C20.2652 68 20.5196 68.1054 20.7071 68.2929C20.8946 68.4804 21 68.7348 21 69C21 69.2652 20.8946 69.5196 20.7071 69.7071C20.5196 69.8946 20.2652 70 20 70Z" fill="white"/>
<path opacity="0.3" d="M11 74H7C6.73478 74 6.48043 73.8946 6.29289 73.7071C6.10536 73.5196 6 73.2652 6 73C6 72.7348 6.10536 72.4804 6.29289 72.2929C6.48043 72.1054 6.73478 72 7 72H11C11.2652 72 11.5196 72.1054 11.7071 72.2929C11.8946 72.4804 12 72.7348 12 73C12 73.2652 11.8946 73.5196 11.7071 73.7071C11.5196 73.8946 11.2652 74 11 74Z" fill="white"/>
<path opacity="0.3" d="M12 78H4C3.73478 78 3.48043 77.8946 3.29289 77.7071C3.10536 77.5196 3 77.2652 3 77C3 76.7348 3.10536 76.4804 3.29289 76.2929C3.48043 76.1054 3.73478 76 4 76H12C12.2652 76 12.5196 76.1054 12.7071 76.2929C12.8946 76.4804 13 76.7348 13 77C13 77.2652 12.8946 77.5196 12.7071 77.7071C12.5196 77.8946 12.2652 78 12 78Z" fill="white"/>
<path opacity="0.3" d="M80 126H54C53.7348 126 53.4804 125.895 53.2929 125.707C53.1054 125.52 53 125.265 53 125C53 124.735 53.1054 124.48 53.2929 124.293C53.4804 124.105 53.7348 124 54 124H80C80.2652 124 80.5196 124.105 80.7071 124.293C80.8946 124.48 81 124.735 81 125C81 125.265 80.8946 125.52 80.7071 125.707C80.5196 125.895 80.2652 126 80 126Z" fill="#030958"/>
<path opacity="0.3" d="M85 126H83C82.7348 126 82.4804 125.895 82.2929 125.707C82.1054 125.52 82 125.265 82 125C82 124.735 82.1054 124.48 82.2929 124.293C82.4804 124.105 82.7348 124 83 124H85C85.2652 124 85.5196 124.105 85.7071 124.293C85.8946 124.48 86 124.735 86 125C86 125.265 85.8946 125.52 85.7071 125.707C85.5196 125.895 85.2652 126 85 126Z" fill="#030958"/>
<path opacity="0.3" d="M47 126H43C42.7348 126 42.4804 125.895 42.2929 125.707C42.1054 125.52 42 125.265 42 125C42 124.735 42.1054 124.48 42.2929 124.293C42.4804 124.105 42.7348 124 43 124H47C47.2652 124 47.5196 124.105 47.7071 124.293C47.8946 124.48 48 124.735 48 125C48 125.265 47.8946 125.52 47.7071 125.707C47.5196 125.895 47.2652 126 47 126Z" fill="#030958"/>
<path opacity="0.3" d="M51 126H50C49.7348 126 49.4804 125.895 49.2929 125.707C49.1054 125.52 49 125.265 49 125C49 124.735 49.1054 124.48 49.2929 124.293C49.4804 124.105 49.7348 124 50 124H51C51.2652 124 51.5196 124.105 51.7071 124.293C51.8946 124.48 52 124.735 52 125C52 125.265 51.8946 125.52 51.7071 125.707C51.5196 125.895 51.2652 126 51 126Z" fill="#030958"/>
</g>
<path d="M101 43.23L64 29L27 43.23V75.87C26.9994 82.3061 28.478 88.6562 31.3216 94.4301C34.1652 100.204 38.2977 105.247 43.4 109.17L64 125L84.6 109.16C89.701 105.238 93.8327 100.197 96.6762 94.4246C99.5197 88.6526 100.999 82.3044 101 75.87V43.23Z" fill="#EEF6FF"/>
<path d="M64 29L27 43.23V47.23L64 33L101 47.23V43.23L64 29Z" fill="white"/>
<g opacity="0.3">
<path opacity="0.3" d="M64 29V125L84.8 109.17C89.9447 105.251 94.1148 100.197 96.9855 94.4021C99.8562 88.607 101.35 82.2272 101.35 75.76V43.23L64 29Z" fill="#5CBEFF"/>
</g>
<g opacity="0.3">
<path opacity="0.3" d="M84.6 105.17L64 121L43.4 105.17C38.2977 101.247 34.1652 96.2039 31.3216 90.4301C28.478 84.6562 26.9994 78.3061 27 71.87V75.87C26.9994 82.3061 28.478 88.6562 31.3216 94.4301C34.1652 100.204 38.2977 105.247 43.4 109.17L64 125L84.6 109.16C89.701 105.238 93.8327 100.197 96.6762 94.4246C99.5197 88.6526 100.999 82.3044 101 75.87V71.87C101.001 78.3061 99.522 84.6562 96.6784 90.4301C93.8348 96.2039 89.7023 101.247 84.6 105.17Z" fill="#5CBEFF"/>
</g>
<path d="M64 126C63.779 125.999 63.5645 125.925 63.39 125.79L42.79 110C37.5765 105.966 33.3536 100.794 30.4437 94.8788C27.5338 88.9637 26.0139 82.462 26 75.87V43.23C26.0006 43.0285 26.062 42.832 26.1762 42.666C26.2904 42.5001 26.4521 42.3725 26.64 42.3L63.64 28.08C63.8717 27.9906 64.1283 27.9906 64.36 28.08L101.36 42.3C101.548 42.3725 101.71 42.5001 101.824 42.666C101.938 42.832 101.999 43.0285 102 43.23V75.87C101.986 82.462 100.466 88.9637 97.5563 94.8788C94.6464 100.794 90.4235 105.966 85.21 110L64.61 125.8C64.4342 125.932 64.2198 126.002 64 126ZM28 43.91V75.91C28.0166 82.1893 29.4666 88.3819 32.2393 94.0158C35.0121 99.6498 39.0345 104.576 44 108.42L64 123.79L84 108.42C88.9641 104.577 92.9857 99.6524 95.7585 94.0203C98.5312 88.3882 99.9819 82.1976 100 75.92V43.92L64 30.07L28 43.91Z" fill="#030958"/>
<path d="M34 48V75.87C34.0164 81.2308 35.2563 86.5171 37.6253 91.3261C39.9943 96.1351 43.4298 100.34 47.67 103.62L64 116.17L80.33 103.62C84.5702 100.34 88.0057 96.1351 90.3747 91.3261C92.7437 86.5171 93.9836 81.2308 94 75.87V48L64 36.5L34 48Z" fill="#B1F1A8"/>
<g opacity="0.3">
<path opacity="0.3" d="M64 116.15L80.3 103.62C84.5457 100.343 87.987 96.1395 90.3612 91.3304C92.7355 86.5212 93.9801 81.2333 94 75.87V48L64 36.51V116.15Z" fill="#48BC33"/>
</g>
<g opacity="0.5">
<path opacity="0.5" d="M80.33 99.62L64 112.17L47.67 99.62C43.4298 96.3399 39.9943 92.1351 37.6253 87.3261C35.2563 82.5171 34.0164 77.2308 34 71.87V75.87C34.0164 81.2308 35.2563 86.5171 37.6253 91.3261C39.9943 96.1351 43.4298 100.34 47.67 103.62L64 116.17L80.33 103.62C84.5702 100.34 88.0057 96.1351 90.3747 91.3261C92.7437 86.5171 93.9836 81.2308 94 75.87V71.87C93.9836 77.2308 92.7437 82.5171 90.3747 87.3261C88.0057 92.1351 84.5702 96.3399 80.33 99.62Z" fill="white"/>
</g>
<g opacity="0.3">
<path opacity="0.3" d="M64 36.5L34 48.03V52.03L64 40.5L94 52.03V48.03L64 36.5Z" fill="#48BC33"/>
</g>
<path d="M64 117.17C63.7791 117.169 63.5645 117.095 63.39 116.96L47.06 104.41C42.6988 101.037 39.1652 96.7124 36.7286 91.7664C34.292 86.8205 33.0168 81.3835 33 75.87V48C33.0006 47.7986 33.062 47.602 33.1762 47.4361C33.2904 47.2701 33.4521 47.1425 33.64 47.07L63.64 35.54C63.8717 35.4506 64.1283 35.4506 64.36 35.54L94.36 47.07C94.5479 47.1425 94.7096 47.2701 94.8238 47.4361C94.938 47.602 94.9994 47.7986 95 48V75.87C94.9832 81.3835 93.708 86.8205 91.2714 91.7664C88.8348 96.7124 85.3012 101.037 80.94 104.41L64.61 117C64.4305 117.121 64.2164 117.181 64 117.17ZM35 48.72V75.87C35.0092 81.085 36.2105 86.2288 38.5122 90.9084C40.8139 95.588 44.1549 99.6794 48.28 102.87L64 114.91L79.72 102.82C83.8384 99.6346 87.1755 95.5512 89.4768 90.8809C91.7782 86.2105 92.9832 81.0765 93 75.87V48.72L64 37.57L35 48.72Z" fill="#030958"/>
<g opacity="0.3">
<path opacity="0.3" d="M85.0002 62C84.8987 61.3112 84.6001 60.6665 84.1405 60.1435C83.6808 59.6205 83.0798 59.2416 82.4097 59.0524C81.7397 58.8633 81.0292 58.8719 80.364 59.0773C79.6987 59.2826 79.107 59.676 78.6602 60.21L60.9102 78.79L52.7502 74.47C50.9702 73.63 49.4902 73.36 48.0502 74.81C47.7125 75.1465 47.4455 75.5473 47.2652 75.9887C47.0848 76.4301 46.9948 76.9032 47.0002 77.38C46.9995 78.2932 47.3588 79.1699 48.0002 79.82L58.6202 91.73C59.422 92.5112 60.5008 92.9427 61.6202 92.93H61.8902C62.5006 92.8878 63.0946 92.714 63.6314 92.4205C64.1682 92.1271 64.6352 91.7209 65.0002 91.23L84.3002 64.69C84.5919 64.3118 84.8042 63.8786 84.9245 63.4163C85.0447 62.9541 85.0705 62.4724 85.0002 62Z" fill="#48BC33"/>
</g>
<path d="M84 59.17C83.9547 58.833 83.843 58.5083 83.6714 58.2148C83.4997 57.9213 83.2715 57.6647 83 57.46C82.4545 57.0607 81.7762 56.8867 81.1059 56.9742C80.4356 57.0617 79.8247 57.404 79.4 57.93L61.11 77L52.32 72.35C50.62 71.54 49.73 71.52 48.76 72.49C48.5129 72.7358 48.3182 73.0291 48.1876 73.3522C48.0569 73.6753 47.9931 74.0216 48 74.37C47.9968 75.0398 48.2593 75.6835 48.73 76.16L59.32 88C59.9229 88.5922 60.7349 88.9228 61.58 88.92H61.82C62.2812 88.8858 62.7297 88.7529 63.1352 88.5303C63.5406 88.3078 63.8935 88.0007 64.17 87.63L83.48 61.09C83.6904 60.8209 83.8448 60.5123 83.9341 60.1826C84.0234 59.8528 84.0458 59.5085 84 59.17Z" fill="#EEF6FF"/>
<path d="M48.7602 75.52C49.7602 74.52 50.6202 74.52 52.3202 75.38L61.1102 80L79.3402 60.92C79.7649 60.394 80.3758 60.0517 81.0461 59.9642C81.7164 59.8767 82.3948 60.0506 82.9402 60.45C83.1568 60.6159 83.3458 60.8151 83.5002 61.04C83.9018 60.4896 84.0684 59.8023 83.9634 59.1291C83.8584 58.4559 83.4904 57.8519 82.9402 57.45C82.3948 57.0506 81.7164 56.8767 81.0461 56.9642C80.3758 57.0517 79.7649 57.394 79.3402 57.92L61.1102 77L52.3202 72.35C50.6202 71.54 49.7302 71.52 48.7602 72.49C48.3253 72.9232 48.0584 73.4969 48.0071 74.1086C47.9558 74.7203 48.1235 75.3304 48.4802 75.83C48.5652 75.7194 48.6588 75.6157 48.7602 75.52Z" fill="white"/>
<path d="M61.6101 89.94C60.4907 89.9527 59.412 89.5212 58.6101 88.74L48.0001 76.83C47.3596 76.1793 47.0005 75.303 47.0001 74.39C46.996 73.9125 47.0876 73.439 47.2697 72.9976C47.4518 72.5561 47.7206 72.1557 48.0601 71.82C49.5001 70.37 50.9801 70.64 52.7501 71.48L60.9101 75.8L78.6201 57.23C79.0628 56.6836 79.6554 56.2783 80.3251 56.064C80.9949 55.8497 81.7127 55.8357 82.3903 56.0237C83.068 56.2117 83.6759 56.5935 84.1395 57.1222C84.6032 57.651 84.9023 58.3036 85.0001 59C85.069 59.4686 85.0435 59.9462 84.925 60.4047C84.8065 60.8633 84.5974 61.2935 84.3101 61.67L65.0001 88.23C64.6363 88.7167 64.172 89.1194 63.6389 89.411C63.1058 89.7026 62.5162 89.8762 61.9101 89.92H61.6401L61.6101 89.94ZM50.3301 72.78C50.1625 72.7871 49.9985 72.8311 49.8499 72.9089C49.7012 72.9867 49.5715 73.0963 49.4701 73.23C49.3198 73.3791 49.2008 73.5568 49.1201 73.7526C49.0394 73.9483 48.9986 74.1583 49.0001 74.37C48.9984 74.7691 49.1527 75.1531 49.4301 75.44L60.0601 87.35C60.47 87.7317 61.01 87.9427 61.5701 87.94H61.7701C62.0887 87.9074 62.3965 87.8065 62.6726 87.6443C62.9486 87.4821 63.1866 87.2624 63.3701 87L82.6701 60.5C82.8022 60.334 82.8995 60.143 82.9562 59.9386C83.0129 59.7341 83.0278 59.5203 83.0001 59.31C82.9274 58.9077 82.7016 58.5493 82.3701 58.31C82.0315 58.0651 81.6121 57.9587 81.1976 58.0126C80.7831 58.0665 80.4049 58.2766 80.1401 58.6L61.8401 77.72C61.6894 77.8767 61.4917 77.9801 61.277 78.0144C61.0622 78.0487 60.8422 78.012 60.6501 77.91L51.8601 73.26C51.389 72.9955 50.8679 72.832 50.3301 72.78Z" fill="#030958"/>
<path d="M113.33 55C113.589 55.8737 114.059 56.6702 114.7 57.319C115.34 57.9678 116.13 58.4489 117 58.72C118.846 59.3333 118.846 59.95 117 60.57C116.129 60.8354 115.338 61.3108 114.694 61.9543C114.051 62.5977 113.575 63.3896 113.31 64.26C112.696 66.1067 112.08 66.1067 111.46 64.26C111.194 63.3896 110.719 62.5977 110.076 61.9543C109.432 61.3108 108.64 60.8354 107.77 60.57C105.923 59.9567 105.923 59.34 107.77 58.72C108.647 58.4546 109.445 57.9759 110.093 57.3268C110.74 56.6777 111.217 55.8783 111.48 55C112.1 53.1733 112.716 53.1733 113.33 55Z" fill="#96D7FF"/>
<path d="M79.9998 16.57C80.1828 17.147 80.5046 17.6703 80.937 18.094C81.3694 18.5176 81.8992 18.8287 82.4798 19C83.7131 19.4133 83.7131 19.8233 82.4798 20.23C81.8924 20.4069 81.3582 20.7271 80.9253 21.1618C80.4924 21.5964 80.1743 22.1319 79.9998 22.72C79.5864 23.9533 79.1764 23.9533 78.7698 22.72C78.5928 22.1397 78.2759 21.6118 77.8469 21.1828C77.4179 20.7538 76.8901 20.4369 76.3098 20.26C75.0764 19.8467 75.0764 19.4367 76.3098 19.03C76.8901 18.853 77.4179 18.5361 77.8469 18.1071C78.2759 17.6782 78.5928 17.1503 78.7698 16.57C79.1898 15.3367 79.5998 15.3367 79.9998 16.57Z" fill="#C9C1F5"/>
<path d="M19.17 51.8C19.3906 52.5271 19.787 53.1885 20.3243 53.7257C20.8615 54.263 21.523 54.6594 22.25 54.88C23.79 55.3933 23.79 55.9067 22.25 56.42C21.523 56.6405 20.8615 57.037 20.3243 57.5742C19.787 58.1115 19.3906 58.7729 19.17 59.5C18.6567 61.04 18.1434 61.04 17.63 59.5C17.4095 58.7729 17.013 58.1115 16.4758 57.5742C15.9385 57.037 15.2771 56.6405 14.55 56.42C13.01 55.9067 13.01 55.3933 14.55 54.88C15.2771 54.6594 15.9385 54.263 16.4758 53.7257C17.013 53.1885 17.4095 52.5271 17.63 51.8C18.1434 50.26 18.6567 50.26 19.17 51.8Z" fill="#C9C1F5"/>
<path d="M8.99977 99.57C9.18187 100.146 9.50218 100.668 9.93274 101.092C10.3633 101.516 10.891 101.827 11.4698 102C12.7031 102.413 12.7031 102.823 11.4698 103.23C10.8831 103.409 10.3502 103.732 9.919 104.168C9.48784 104.604 9.17195 105.141 8.99977 105.73C8.58643 106.963 8.17643 106.963 7.76977 105.73C7.59283 105.15 7.27591 104.622 6.84693 104.193C6.41794 103.764 5.89006 103.447 5.30977 103.27C4.07643 102.857 4.07643 102.447 5.30977 102.04C5.89006 101.863 6.41794 101.546 6.84693 101.117C7.27591 100.688 7.59283 100.16 7.76977 99.58C8.18977 98.3467 8.59977 98.3433 8.99977 99.57Z" fill="#C9C1F5"/>
<path d="M23.9998 106.57C24.1819 107.146 24.5022 107.668 24.9327 108.092C25.3633 108.516 25.891 108.827 26.4698 109C27.7031 109.413 27.7031 109.823 26.4698 110.23C25.8831 110.409 25.3502 110.732 24.919 111.168C24.4878 111.604 24.1719 112.141 23.9998 112.73C23.5864 113.963 23.1764 113.963 22.7698 112.73C22.5928 112.15 22.2759 111.622 21.8469 111.193C21.4179 110.764 20.8901 110.447 20.3098 110.27C19.0764 109.857 19.0764 109.447 20.3098 109.04C20.8901 108.863 21.4179 108.546 21.8469 108.117C22.2759 107.688 22.5928 107.16 22.7698 106.58C23.1898 105.347 23.5998 105.343 23.9998 106.57Z" fill="#96D7FF"/>
<path d="M112 105.57C112.177 106.15 112.494 106.678 112.923 107.107C113.352 107.536 113.879 107.853 114.46 108.03C115.693 108.443 115.693 108.853 114.46 109.26C113.879 109.437 113.352 109.754 112.923 110.183C112.494 110.612 112.177 111.14 112 111.72C111.586 112.953 111.176 112.953 110.77 111.72C110.593 111.14 110.276 110.612 109.847 110.183C109.418 109.754 108.89 109.437 108.31 109.26C107.076 108.847 107.076 108.437 108.31 108.03C108.89 107.853 109.418 107.536 109.847 107.107C110.276 106.678 110.593 106.15 110.77 105.57C111.196 104.343 111.606 104.343 112 105.57Z" fill="#C9C1F5"/>
</svg>
