<svg width="48" height="54" viewBox="0 0 48 54" fill="none" xmlns="http://www.w3.org/2000/svg">
<path d="M6.29522 22.2716L0.936523 19.2245V13.7607L5.87493 10.9237L11.2336 13.9709L6.29522 16.8078V22.2716ZM10.4981 34.8803L15.0162 37.5071V32.2535L10.4981 29.6266V34.8803ZM6.29522 27.21L0.936523 24.0578V40.344L15.0162 48.4346V42.2353L6.29522 37.1919V27.21ZM19.6394 13.9709L24.0525 16.4926L28.4655 13.9709L24.0525 11.4491L19.6394 13.9709ZM19.2191 44.7571V50.8513L23.9474 53.5832L28.6756 50.8513V44.652L23.9474 47.3839L19.2191 44.7571ZM37.5017 19.2245L32.5633 16.3875L23.9474 21.3259L15.3314 16.3875L10.393 19.2245V24.6882L19.1141 29.7317V39.8187L23.8423 42.5506L28.5706 39.8187V29.8368L37.2916 24.7933V19.2245H37.5017ZM37.5017 34.8803V29.6266L32.9836 32.2535V37.5071L37.5017 34.8803ZM23.9474 6.61578L32.5633 11.5542L37.922 8.40201L23.9474 0.416504L10.0778 8.50708L15.4365 11.6593L23.9474 6.61578ZM42.1249 10.9237L36.7662 13.9709L41.7046 16.8078V22.2716L47.0633 19.2245V13.7607L42.1249 10.9237ZM41.7046 37.2969L32.9836 42.3404V48.5397L47.0633 40.344V24.0578L41.7046 27.1049V37.2969Z" fill="#F0B90B"/>
</svg>
