<svg width="4" height="16" viewBox="0 0 4 16" fill="none" xmlns="http://www.w3.org/2000/svg">
<path fill-rule="evenodd" clip-rule="evenodd" d="M3.5 2C3.5 1.175 2.825 0.5 2 0.5C1.175 0.5 0.5 1.175 0.5 2C0.5 2.825 1.175 3.5 2 3.5C2.825 3.5 3.5 2.825 3.5 2ZM0.5 8C0.5 8.825 1.175 9.5 2 9.5C2.825 9.5 3.5 8.825 3.5 8C3.5 7.175 2.825 6.5 2 6.5C1.175 6.5 0.5 7.175 0.5 8ZM0.5 14C0.5 14.825 1.175 15.5 2 15.5C2.825 15.5 3.5 14.825 3.5 14C3.5 13.175 2.825 12.5 2 12.5C1.175 12.5 0.5 13.175 0.5 14Z" fill="#9D9CB2"/>
</svg>
