<svg width="24" height="24" viewBox="0 0 24 24" fill="none" xmlns="http://www.w3.org/2000/svg">
<path d="M12.0004 9.95431L9.96045 12L12.0004 14.0457L14.0404 12L12.0004 9.95431Z" stroke="#8880A8" stroke-width="2" stroke-miterlimit="10" stroke-linejoin="round"/>
<path d="M4.02649 9.97351L2 12L4.02649 14.0265L6.05298 12L4.02649 9.97351Z" stroke="#8880A8" stroke-width="2" stroke-miterlimit="10" stroke-linejoin="round"/>
<path d="M19.9866 9.98036L17.9727 12L19.9866 14.0196L22.0006 12L19.9866 9.98036Z" stroke="#8880A8" stroke-width="2" stroke-miterlimit="10" stroke-linejoin="round"/>
<path d="M11.9512 6.42353L15.7561 10L18 7.83529L14.2927 4.25882L11.9512 2L9.70732 4.25882L6 7.83529L8.2439 10L11.9512 6.42353Z" stroke="white" stroke-width="2" stroke-miterlimit="10" stroke-linejoin="round"/>
<path d="M11.9512 17.619L8.2439 14L6 16.1905L9.70732 19.8095L11.9512 22L14.2927 19.8095L18 16.1905L15.7561 14L11.9512 17.619Z" stroke="white" stroke-width="2" stroke-miterlimit="10" stroke-linejoin="round"/>
</svg>
