<svg width="40" height="58" viewBox="0 0 40 58" fill="none" xmlns="http://www.w3.org/2000/svg">
<path d="M15.1784 0H12.9062V58H15.1784V0Z" fill="url(#paint0_linear)"/>
<path d="M22.9479 0H20.6758V58H22.9479V0Z" fill="url(#paint1_linear)"/>
<path d="M0 6.37484C0.272656 6.37484 8.13422 6.37484 11.8605 6.37484C12.6785 6.37484 18.2225 6.32897 20.1311 6.55832C24.948 7.15463 29.1287 9.17291 32.6732 12.4297C37.0357 16.5121 39.4896 21.6037 39.944 27.5668C40.7166 38.9884 33.4003 48.3459 23.6301 51.1899C23.0394 51.3733 19.8584 52.1073 16.9046 52.1073C16.4957 52.1073 16.1321 52.1073 15.7231 52.1073C15.3596 52.1073 0.318094 52.1073 0.0454384 52.1073C-4.16107e-06 36.8784 0 21.6496 0 6.37484ZM22.8576 47.5661C29.7649 45.5937 36.6267 38.4839 36.3541 28.7135C36.036 18.5763 28.4016 12.9343 22.8576 10.916C21.5398 10.4573 19.4494 10.0903 18.8587 10.0444C17.6317 9.99857 13.5873 9.9527 12.3149 9.9527C9.58838 9.99857 6.86183 9.9527 4.13527 9.9527C3.9535 9.9527 3.77173 9.9527 3.58996 9.99857C3.58996 22.8422 3.58996 35.6399 3.58996 48.4377C6.68006 48.4377 9.77015 48.4377 12.9057 48.4377L15.2233 48.3918C16.7683 48.3459 20.1765 48.4377 22.8576 47.5661Z" fill="white"/>
<defs>
<linearGradient id="paint0_linear" x1="14.0353" y1="58.0092" x2="14.0353" y2="0" gradientUnits="userSpaceOnUse">
<stop stop-color="#DA1E5E"/>
<stop offset="1" stop-color="#F69322"/>
</linearGradient>
<linearGradient id="paint1_linear" x1="21.8048" y1="58.0092" x2="21.8048" y2="0" gradientUnits="userSpaceOnUse">
<stop stop-color="#DA1E5E"/>
<stop offset="1" stop-color="#F69322"/>
</linearGradient>
</defs>
</svg>
