<svg width="24" height="24" viewBox="0 0 24 24" fill="none" xmlns="http://www.w3.org/2000/svg">
<path d="M2.35742 21.6431H21.6431" stroke="white" stroke-width="2" stroke-linecap="round" stroke-linejoin="round"/>
<path d="M12 17.7856V21.6428" stroke="white" stroke-width="2" stroke-linecap="round" stroke-linejoin="round"/>
<path d="M11.9998 2.35693C10.9477 3.34139 10.1171 4.53834 9.5629 5.86834C9.00873 7.19834 8.74374 8.63099 8.78552 10.0712C8.74374 11.5114 9.00873 12.9441 9.5629 14.2741C10.1171 15.6041 10.9477 16.801 11.9998 17.7855" stroke="#8880A8" stroke-width="2" stroke-linecap="round" stroke-linejoin="round"/>
<path d="M12 2.35693C13.0521 3.34139 13.8827 4.53834 14.4369 5.86834C14.9911 7.19834 15.2561 8.63099 15.2143 10.0712C15.2561 11.5114 14.9911 12.9441 14.4369 14.2741C13.8827 15.6041 13.0521 16.801 12 17.7855" stroke="#8880A8" stroke-width="2" stroke-linecap="round" stroke-linejoin="round"/>
<path d="M4.72461 7.5H19.2712" stroke="#8880A8" stroke-width="2" stroke-linecap="round" stroke-linejoin="round"/>
<path d="M4.72461 12.6431H19.2738" stroke="#8880A8" stroke-width="2" stroke-linecap="round" stroke-linejoin="round"/>
<path d="M11.9994 17.7855C16.2599 17.7855 19.7137 14.3317 19.7137 10.0712C19.7137 5.81074 16.2599 2.35693 11.9994 2.35693C7.73896 2.35693 4.28516 5.81074 4.28516 10.0712C4.28516 14.3317 7.73896 17.7855 11.9994 17.7855Z" stroke="white" stroke-width="2" stroke-linecap="round" stroke-linejoin="round"/>
</svg>
