<svg width="18" height="22" viewBox="0 0 18 22" fill="none" xmlns="http://www.w3.org/2000/svg">
<path d="M16.4 4.4L13.6 1.6C13.2 1.2 12.7 1 12.2 1H3C1.9 1 1 1.9 1 3V19C1 20.1 1.9 21 3 21H15C16.1 21 17 20.1 17 19V5.8C17 5.3 16.8 4.8 16.4 4.4Z" stroke="#110252" stroke-width="2" stroke-linecap="round" stroke-linejoin="round"/>
<path d="M16 6H12C11.4 6 11 5.6 11 5V1" stroke="#110252" stroke-width="2" stroke-linecap="round" stroke-linejoin="round"/>
<path d="M7.5 16.5H10.5" stroke="#110252" stroke-width="2" stroke-linecap="round" stroke-linejoin="round"/>
<path d="M7.5 11.8V10.3C7.5 9.9 7.8 9.6 8.2 9.6H9.7C10.1 9.6 10.4 9.9 10.4 10.3V11.8C10.4 12.2 10.1 12.5 9.7 12.5H8.2C7.8 12.5 7.5 12.2 7.5 11.8Z" stroke="#110252" stroke-width="2" stroke-linecap="round" stroke-linejoin="round"/>
<path d="M4.5 17.3V15.8C4.5 15.4 4.8 15.1 5.2 15.1H6.7C7.1 15.1 7.4 15.4 7.4 15.8V17.3C7.4 17.7 7.1 18 6.7 18H5.2C4.8 18 4.5 17.7 4.5 17.3Z" stroke="#110252" stroke-width="2" stroke-linecap="round" stroke-linejoin="round"/>
<path d="M10.5 17.3V15.8C10.5 15.4 10.8 15.1 11.2 15.1H12.7C13.1 15.1 13.4 15.4 13.4 15.8V17.3C13.4 17.7 13.1 18 12.6 18H11.1C10.8 18 10.5 17.7 10.5 17.3Z" stroke="#110252" stroke-width="2" stroke-linecap="round" stroke-linejoin="round"/>
<path d="M6 15L7.7 12.2" stroke="#110252" stroke-width="2" stroke-linecap="round" stroke-linejoin="round"/>
<path d="M10.3 12.2L12 15" stroke="#110252" stroke-width="2" stroke-linecap="round" stroke-linejoin="round"/>
</svg>
