<svg width="24" height="24" viewBox="0 0 24 24" fill="none" xmlns="http://www.w3.org/2000/svg">
<rect width="24" height="24" rx="12" fill="#110252"/>
<path d="M11.1739 4H10.5491V20H11.1739V4Z" fill="url(#paint0_linear)"/>
<path d="M13.3109 4H12.686V20H13.3109V4Z" fill="url(#paint1_linear)"/>
<path d="M7 5.75885C7.07498 5.75885 9.23691 5.75885 10.2616 5.75885C10.4866 5.75885 12.0112 5.74619 12.536 5.80946C13.8607 5.97396 15.0104 6.53073 15.9851 7.42915C17.1848 8.55534 17.8596 9.95991 17.9846 11.6049C18.1971 14.7557 16.1851 17.3371 13.4983 18.1216C13.3358 18.1722 12.4611 18.3747 11.6488 18.3747C11.5363 18.3747 11.4363 18.3747 11.3239 18.3747C11.2239 18.3747 7.08748 18.3747 7.0125 18.3747C7 14.1736 7 9.97256 7 5.75885ZM13.2858 17.122C15.1853 16.5778 17.0724 14.6165 16.9974 11.9212C16.9099 9.12476 14.8104 7.56834 13.2858 7.01157C12.9234 6.88503 12.3486 6.7838 12.1861 6.77115C11.8487 6.7585 10.7365 6.74584 10.3866 6.74584C9.63681 6.7585 8.887 6.74584 8.1372 6.74584C8.08721 6.74584 8.03723 6.74584 7.98724 6.7585C7.98724 10.3016 7.98724 13.832 7.98724 17.3624C8.83702 17.3624 9.68679 17.3624 10.5491 17.3624L11.1864 17.3497C11.6113 17.3371 12.5485 17.3624 13.2858 17.122Z" fill="white"/>
<defs>
<linearGradient id="paint0_linear" x1="10.8595" y1="20.0025" x2="10.8595" y2="4" gradientUnits="userSpaceOnUse">
<stop stop-color="#DA1E5E"/>
<stop offset="1" stop-color="#F69322"/>
</linearGradient>
<linearGradient id="paint1_linear" x1="12.9965" y1="20.0025" x2="12.9965" y2="4" gradientUnits="userSpaceOnUse">
<stop stop-color="#DA1E5E"/>
<stop offset="1" stop-color="#F69322"/>
</linearGradient>
</defs>
</svg>
