<svg width="24" height="24" viewBox="0 0 24 24" fill="none" xmlns="http://www.w3.org/2000/svg">
<path fill-rule="evenodd" clip-rule="evenodd" d="M19.4294 12.98C19.4694 12.66 19.4994 12.34 19.4994 12C19.4994 11.66 19.4694 11.34 19.4294 11.02L21.5394 9.37C21.7294 9.22 21.7794 8.95 21.6594 8.73L19.6594 5.27C19.5394 5.05 19.2694 4.97 19.0494 5.05L16.5594 6.05C16.0394 5.65 15.4794 5.32 14.8694 5.07L14.4894 2.42C14.4594 2.18 14.2494 2 13.9994 2H9.99935C9.74935 2 9.53935 2.18 9.50935 2.42L9.12935 5.07C8.51935 5.32 7.95935 5.66 7.43935 6.05L4.94935 5.05C4.71935 4.96 4.45935 5.05 4.33935 5.27L2.33935 8.73C2.20935 8.95 2.26935 9.22 2.45935 9.37L4.56935 11.02C4.52935 11.34 4.49935 11.67 4.49935 12C4.49935 12.33 4.52935 12.66 4.56935 12.98L2.45935 14.63C2.26935 14.78 2.21935 15.05 2.33935 15.27L4.33935 18.73C4.45935 18.95 4.72935 19.03 4.94935 18.95L7.43935 17.95C7.95935 18.35 8.51935 18.68 9.12935 18.93L9.50935 21.58C9.53935 21.82 9.74935 22 9.99935 22H13.9994C14.2494 22 14.4594 21.82 14.4894 21.58L14.8694 18.93C15.4794 18.68 16.0394 18.34 16.5594 17.95L19.0494 18.95C19.2794 19.04 19.5394 18.95 19.6594 18.73L21.6594 15.27C21.7794 15.05 21.7294 14.78 21.5394 14.63L19.4294 12.98Z" stroke="white" stroke-width="2" stroke-linecap="round" stroke-linejoin="round"/>
<path d="M15.5 12C15.5 13.93 13.93 15.5 12 15.5C10.07 15.5 8.5 13.93 8.5 12C8.5 10.07 10.07 8.5 12 8.5" stroke="#8880A8" stroke-width="2" stroke-linecap="round"/>
</svg>
