<svg width="24" height="24" viewBox="0 0 24 24" fill="none" xmlns="http://www.w3.org/2000/svg">
<path d="M20.625 10H12.375C11.6156 10 11 10.6716 11 11.5V20.5C11 21.3284 11.6156 22 12.375 22H20.625C21.3844 22 22 21.3284 22 20.5V11.5C22 10.6716 21.3844 10 20.625 10Z" stroke="white" stroke-width="2" stroke-linecap="round" stroke-linejoin="round"/>
<path d="M14.0039 16H19.3348" stroke="#8880A8" stroke-width="2" stroke-linecap="round" stroke-linejoin="round"/>
<path d="M14 13H19.3309" stroke="#8880A8" stroke-width="2" stroke-linecap="round" stroke-linejoin="round"/>
<path d="M14.0039 19H16.003" stroke="#8880A8" stroke-width="2" stroke-linecap="round" stroke-linejoin="round"/>
<path d="M22 6C18.5 3.5 15 6 15 6C15 6 14.3958 5.03896 13.5315 4.11397C12.6671 3.18897 11.5574 2.52937 10.332 2.21234C9.10668 1.89531 7.81642 1.93396 6.61223 2.32377C5.40804 2.71358 4.33971 3.43843 3.53225 4.41351C2.72479 5.38858 2.2116 6.57356 2.05272 7.82978C1.89383 9.086 2.09583 10.3615 2.63508 11.5071C3.17433 12.6526 4.02852 13.6209 5.09771 14.2985C6.1669 14.9761 7 15 7 15" stroke="#8880A8" stroke-width="2" stroke-linecap="round" stroke-linejoin="round"/>
</svg>