<svg width="24" height="24" viewBox="0 0 24 24" fill="none" xmlns="http://www.w3.org/2000/svg">
<path d="M17.7515 7.31341L15.7671 3.34446C15.692 3.19427 15.5881 3.06033 15.4613 2.9503C15.3344 2.84028 15.1872 2.75632 15.0279 2.70322C14.8686 2.65013 14.7004 2.62894 14.5329 2.64086C14.3655 2.65279 14.202 2.69759 14.0518 2.77272L4.97046 7.31341" stroke="#8880A8" stroke-width="2" stroke-linecap="round" stroke-linejoin="round"/>
<path d="M20.3077 17.5383V18.8164C20.3077 19.4943 20.0384 20.1445 19.559 20.6239C19.0796 21.1033 18.4294 21.3726 17.7515 21.3726H4.9704C4.29245 21.3726 3.64226 21.1033 3.16288 20.6239C2.6835 20.1445 2.41418 19.4943 2.41418 18.8164V9.86963C2.41418 9.19168 2.6835 8.5415 3.16288 8.06211C3.64226 7.58273 4.29245 7.31342 4.9704 7.31342H17.7515C18.4294 7.31342 19.0796 7.58273 19.559 8.06211C20.0384 8.5415 20.3077 9.19168 20.3077 9.86963V11.1477" stroke="white" stroke-width="2" stroke-linecap="round" stroke-linejoin="round"/>
<path d="M20.3076 17.5387C20.6466 17.5387 20.9717 17.404 21.2114 17.1643C21.4511 16.9246 21.5858 16.5995 21.5858 16.2606V12.4262C21.5858 12.0873 21.4511 11.7622 21.2114 11.5225C20.9717 11.2828 20.6466 11.1481 20.3076 11.1481H17.1124C16.2649 11.1481 15.4522 11.4848 14.853 12.084C14.2538 12.6832 13.9171 13.496 13.9171 14.3434C13.9171 15.1908 14.2538 16.0036 14.853 16.6028C15.4522 17.202 16.2649 17.5387 17.1124 17.5387H20.3076Z" stroke="#8880A8" stroke-width="2" stroke-linecap="round" stroke-linejoin="round"/>
<path d="M17.1124 14.0237C17.1756 14.0237 17.2374 14.0425 17.29 14.0776C17.3425 14.1127 17.3835 14.1626 17.4076 14.221C17.4318 14.2794 17.4382 14.3436 17.4258 14.4056C17.4135 14.4676 17.3831 14.5245 17.3384 14.5692C17.2937 14.6139 17.2368 14.6443 17.1748 14.6567C17.1128 14.669 17.0485 14.6627 16.9902 14.6385C16.9318 14.6143 16.8819 14.5733 16.8468 14.5208C16.8116 14.4682 16.7929 14.4065 16.7929 14.3433C16.7929 14.2585 16.8266 14.1773 16.8865 14.1173C16.9464 14.0574 17.0277 14.0237 17.1124 14.0237" stroke="white" stroke-width="1.5" stroke-linecap="round" stroke-linejoin="round"/>
</svg>
